<svg height="512pt" viewBox="0 -3 512 512" width="512pt" xmlns="http://www.w3.org/2000/svg"><path d="m505.996094 252.996094c0 139.726562-113.273438 253-253 253-139.726563 0-252.996094-113.273438-252.996094-253 0-139.726563 113.269531-252.996094 252.996094-252.996094 139.726562 0 253 113.269531 253 252.996094zm0 0" fill="#6392e3"/><path d="m511.105469 318.144531-57.9375-246.738281c-4.222657-17.976562-22.25-29.105469-40.214844-24.816406l-10.316406 2.464844-374.28125 87.546874s0 0-.011719.011719c-.019531.042969-.070312.144531-.152344.300781-1.074218 2.136719-7.074218 14.703126-10.648437 23.386719-.03125.074219-.0625.136719-.082031.207031-11.265626 28.667969-17.460938 59.894532-17.460938 92.566407 0 79.542969 36.710938 150.519531 94.113281 196.894531 42.742188-9.976562 301.097657-70.4375 388.6875-90.925781 1.144531-.265625 2.285157-.535157 3.421875-.800781 17.949219-4.195313 29.09375-22.152344 24.882813-40.097657zm0 0" fill="#f5d3bd"/><path d="m511.109375 318.15625-57.945313-246.777344c-4.21875-17.96875-22.234374-29.085937-40.1875-24.800781l-10.339843 2.46875-.09375.019531c2.160156.558594 3.9375 2.273438 4.484375 4.597656l15.445312 66.015626 41.265625 176.394531 13.382813 57.199219c.734375 3.148437-1.101563 6.96875-4.105469 8.050781 2.675781-.640625 5.921875-1.382813 9.785156-2.289063 1.148438-.269531 2.292969-.535156 3.4375-.800781 17.941407-4.191406 29.082031-22.140625 24.871094-40.078125zm0 0" fill="#dbbca9"/><path d="m455.429688 80.960938-172.9375 191.644531c-7.703126 8.542969-19.960938 11.296875-30.574219 6.867187l-22.058594-9.199218-218.886719-91.316407c1.621094-5.339843 3.417969-10.585937 5.386719-15.757812 3.328125-8.726563 7.746094-18.445313 12-26.683594l374.011719-87.382813 10.894531-2.582031c2.273437-.527343 4.535156-.816406 6.777344-.867187.78125-.019532 1.566406-.011719 2.351562.03125 3.617188.164062 7.117188.929687 10.410157 2.210937.03125.007813.074218.03125.101562.039063 9.738281 3.820312 17.515625 12.175781 20.148438 23.113281zm0 0" fill="#dbbca9"/><path d="m63.632812 414.042969c-1.726562 0-3.460937-.574219-4.902343-1.75-3.308594-2.710938-3.796875-7.589844-1.085938-10.898438l157.71875-192.601562 243.992188 105.929687c3.925781 1.703125 5.722656 6.265625 4.023437 10.1875-1.707031 3.925782-6.269531 5.722656-10.191406 4.023438l-233.253906-101.269532-150.304688 183.542969c-1.53125 1.867188-3.753906 2.835938-5.996094 2.835938zm0 0" fill="#d4b6a3"/><path d="m241.902344 263.167969 1.601562-1.808594 189.378906-213.40625c-.027343-.007813-.054687-.019531-.078124-.027344-3.292969-1.28125-6.792969-2.046875-10.410157-2.210937-.785156-.042969-1.570312-.050782-2.351562-.03125-2.242188.050781-4.503907.339844-6.777344.867187l-10.894531 2.582031-374.011719 87.382813c-4.253906 8.238281-8.671875 17.957031-12 26.683594-1.96875 5.171875-3.765625 10.417969-5.386719 15.757812l218.832032 91.292969c.015624-.003906.03125-.007812.046874-.011719 4.554688-1 8.796876-3.40625 12.050782-7.070312zm0 0" fill="#ffead7"/></svg>